<?xml version="1.0" encoding="UTF-8"?>
<svg version="1.1" xmlns="http://www.w3.org/2000/svg" width="400" height="400">
<path d="M0 0 C132 0 264 0 400 0 C400 132 400 264 400 400 C268 400 136 400 0 400 C0 268 0 136 0 0 Z " fill="#000000" transform="translate(0,0)"/>
<path d="M0 0 C0.87355637 -0.00426498 1.74711273 -0.00852997 2.6471405 -0.01292419 C3.61287994 -0.01247101 4.57861938 -0.01201782 5.57362366 -0.0115509 C7.09058083 -0.01658882 7.09058083 -0.01658882 8.63818359 -0.02172852 C11.9995698 -0.03127032 15.36090637 -0.03318323 18.7223053 -0.03425598 C21.04779074 -0.03746626 23.37327598 -0.04083015 25.69876099 -0.04434204 C30.58055591 -0.05034136 35.46233311 -0.05218111 40.34413147 -0.05158997 C46.61372176 -0.05148828 52.88319895 -0.06514318 59.15276241 -0.08236217 C63.95758592 -0.0934555 68.76238186 -0.09551 73.56721687 -0.09498024 C75.87937879 -0.09616429 78.19154133 -0.10060966 80.50369072 -0.10831261 C83.73151043 -0.11805904 86.95908159 -0.1152557 90.18690491 -0.10920715 C91.15062012 -0.11482666 92.11433533 -0.12044617 93.10725403 -0.12623596 C94.42181831 -0.11994423 94.42181831 -0.11994423 95.76293945 -0.11352539 C96.90862349 -0.11434254 96.90862349 -0.11434254 98.07745266 -0.1151762 C99.94496155 0.13371277 99.94496155 0.13371277 101.94496155 2.13371277 C102.18547058 4.72798157 102.18547058 4.72798157 102.17201233 8.0521698 C102.17186127 9.29330536 102.17171021 10.53444092 102.17155457 11.81318665 C102.16134055 13.17263447 102.15090855 14.53208067 102.14027405 15.89152527 C102.13654439 17.27872006 102.13369719 18.66591748 102.13169861 20.05311584 C102.12405839 23.70611328 102.1044067 27.35895194 102.08229065 31.0118866 C102.06184051 34.73867139 102.05269868 38.4654818 102.0426178 42.19230652 C102.02116106 49.50618102 101.98702057 56.81992466 101.94496155 64.13371277 C99.63290444 65.28974132 98.32836531 65.25706627 95.75621033 65.25396729 C94.4394783 65.25602928 94.4394783 65.25602928 93.09614563 65.25813293 C92.13085938 65.25453766 91.16557312 65.25094238 90.17103577 65.24723816 C88.64904068 65.2474572 88.64904068 65.2474572 87.09629822 65.24768066 C83.73072701 65.24698204 80.36521063 65.23919199 76.99964905 65.23136902 C74.67080211 65.22950466 72.34195477 65.22808084 70.0131073 65.2270813 C63.87445499 65.22325753 57.73582622 65.21342843 51.59718323 65.20237732 C45.33681049 65.19216018 39.07643396 65.18758303 32.8160553 65.18254089 C20.52568035 65.17180605 8.23532291 65.1547313 -4.05503845 65.13371277 C-5.41440783 62.41497401 -5.18221957 60.27463907 -5.18443298 57.23112488 C-5.18758514 55.99321701 -5.1907373 54.75530914 -5.19398499 53.47988892 C-5.19219534 52.12361109 -5.19014442 50.76733359 -5.18785095 49.41105652 C-5.18852426 48.02625512 -5.1894945 46.64145383 -5.19075012 45.25665283 C-5.19222536 42.35392634 -5.19007779 39.45123061 -5.18540955 36.54850769 C-5.17970703 32.82018307 -5.18299564 29.09193035 -5.18898201 25.36360836 C-5.19258778 22.50439915 -5.19144906 19.64520711 -5.18885422 16.78599739 C-5.18818527 15.41081801 -5.18901226 14.0356371 -5.19133377 12.66045952 C-5.19386109 10.74260867 -5.18932898 8.82475239 -5.18443298 6.90690613 C-5.18363739 5.81373581 -5.1828418 4.72056549 -5.18202209 3.5942688 C-4.97440585 -0.42870135 -3.62134832 0.00794959 0 0 Z " fill="#F55E00" transform="translate(239.05503845214844,167.8662872314453)"/>
<path d="M0 0 C4.62 0 9.24 0 14 0 C15.80400709 5.72576164 17.18312829 11.04850615 18 17 C18.350625 17.825 18.70125 18.65 19.0625 19.5 C20.27740263 22.73974034 20.1344782 25.57080601 20 29 C21.32 29 22.64 29 24 29 C23.95875 27.906875 23.9175 26.81375 23.875 25.6875 C23.875 17.94050167 25.70930872 10.36293626 28 3 C28.66 3 29.32 3 30 3 C30 2.01 30 1.02 30 0 C34.62 0 39.24 0 44 0 C44 15.18 44 30.36 44 46 C41.36 46 38.72 46 36 46 C35 45 35 45 34.88647461 42.22436523 C34.89171143 41.01466064 34.89694824 39.80495605 34.90234375 38.55859375 C34.90556641 37.25341797 34.90878906 35.94824219 34.91210938 34.60351562 C34.92046599 33.2148431 34.92893095 31.82617123 34.9375 30.4375 C34.94251334 29.04492344 34.94707653 27.65234519 34.95117188 26.25976562 C34.96300566 22.8398013 34.9794912 19.41992156 35 16 C34.34 16 33.68 16 33 16 C33 17.65 33 19.3 33 21 C32.34 21 31.68 21 31 21 C30.67 25.29 30.34 29.58 30 34 C29.34 34 28.68 34 28 34 C28.020625 35.2375 28.04125 36.475 28.0625 37.75 C28.11433318 40.8599909 27.782223 42.87110801 27 46 C23.7 46 20.4 46 17 46 C14.22284872 35.02434362 11.57262001 24.02551431 9 13 C8.67 23.89 8.34 34.78 8 46 C5.36 46 2.72 46 0 46 C0 30.82 0 15.64 0 0 Z " fill="#F0F0F0" transform="translate(55,174)"/>
<path d="M0 0 C4.95 0 9.9 0 15 0 C15 0.66 15 1.32 15 2 C15.5775 2.0825 16.155 2.165 16.75 2.25 C19.69632751 3.23210917 21.03027912 4.62275066 23 7 C24.93662766 12.66973229 25.29144212 20.57859647 23.17578125 26.18359375 C22.125 27.8125 22.125 27.8125 20 30 C19.34 30 18.68 30 18 30 C18 30.66 18 31.32 18 32 C13.48779109 35.91058106 8.62104043 35.29469532 3 35 C3 34.34 3 33.68 3 33 C2.0925 32.9175 1.185 32.835 0.25 32.75 C-3.42008088 31.90305826 -4.69866328 30.92092737 -7 28 C-7 27.34 -7 26.68 -7 26 C-7.66 26 -8.32 26 -9 26 C-10.67596381 20.07281092 -11.26457653 13.61877831 -8.25 8.0625 C-6.28589741 5.38913814 -4.86342855 3.62260951 -2 2 C-1.34 2 -0.68 2 0 2 C0 1.34 0 0.68 0 0 Z " fill="#E7E7E7" transform="translate(176,186)"/>
<path d="M0 0 C0 0.66 0 1.32 0 2 C0.61875 2.0825 1.2375 2.165 1.875 2.25 C4 3 4 3 5.25 5.0625 C5.4975 5.701875 5.745 6.34125 6 7 C6.66 7 7.32 7 8 7 C8 7.66 8 8.32 8 9 C8.66 9 9.32 9 10 9 C11.69057861 14.28305817 11.29188056 19.67099269 10 25 C9.34 25 8.68 25 8 25 C7.566875 25.8971875 7.566875 25.8971875 7.125 26.8125 C4.56818182 31.78409091 4.56818182 31.78409091 0.875 33.1875 C-6.16095121 34.66278009 -12.71532447 34.85144939 -19 31 C-23.56652332 25.74849818 -23.41664508 20.88151545 -23.3359375 14.0859375 C-22.71976941 8.42578879 -20.74797996 4.77003767 -16.41796875 1.16015625 C-11.34439539 -1.27417539 -5.48205576 -0.41058393 0 0 Z " fill="#EBEBEB" transform="translate(130,186)"/>
<path d="M0 0 C2.31 0 4.62 0 7 0 C8 1 8 1 8.09765625 3.72265625 C8.08605469 4.82480469 8.07445312 5.92695313 8.0625 7.0625 C8.05347656 8.16722656 8.04445313 9.27195313 8.03515625 10.41015625 C8.02355469 11.26480469 8.01195312 12.11945313 8 13 C8.66 13 9.32 13 10 13 C10 12.34 10 11.68 10 11 C13.63 11 17.26 11 21 11 C21 11.66 21 12.32 21 13 C22.32 13.33 23.64 13.66 25 14 C25 14.99 25 15.98 25 17 C25.66 17 26.32 17 27 17 C28.01173798 20.03521394 28.16573514 22.19733079 28.1875 25.375 C28.20167969 26.31085938 28.21585937 27.24671875 28.23046875 28.2109375 C27.8457385 32.86682566 26.55628654 35.40397871 23.375 38.8125 C19.62698313 41.75013484 16.63382831 41.45578639 12 41 C11.01 40.67 10.02 40.34 9 40 C8.67 39.34 8.34 38.68 8 38 C7.67 38.99 7.34 39.98 7 41 C4.69 41 2.38 41 0 41 C0 27.47 0 13.94 0 0 Z " fill="#100600" transform="translate(308,175)"/>
<path d="M0 0 C2.31 0 4.62 0 7 0 C7 4.62 7 9.24 7 14 C7.66 14 8.32 14 9 14 C9 13.34 9 12.68 9 12 C9.66 12 10.32 12 11 12 C11 11.34 11 10.68 11 10 C14.63 10 18.26 10 22 10 C22 10.66 22 11.32 22 12 C22.66 12 23.32 12 24 12 C24 12.66 24 13.32 24 14 C24.66 14 25.32 14 26 14 C26 22.25 26 30.5 26 39 C23.69 39 21.38 39 19 39 C19 31.74 19 24.48 19 17 C16.03 17 13.06 17 10 17 C7.94872156 20.07691766 7.72739128 20.93644999 7.5859375 24.44921875 C7.54726562 25.29677734 7.50859375 26.14433594 7.46875 27.01757812 C7.42234375 28.33918945 7.42234375 28.33918945 7.375 29.6875 C7.33632812 30.58017578 7.29765625 31.47285156 7.2578125 32.39257812 C7.16359782 34.5948462 7.07798412 36.79710722 7 39 C4.69 39 2.38 39 0 39 C0 26.13 0 13.26 0 0 Z " fill="#100600" transform="translate(240,176)"/>
<path d="M0 0 C0 3.63 0 7.26 0 11 C1.65 11 3.3 11 5 11 C6 12 6 12 6.0625 15.0625 C6.041875 16.031875 6.02125 17.00125 6 18 C4.02 18 2.04 18 0 18 C0 24.6 0 31.2 0 38 C1.98 38 3.96 38 6 38 C6.125 40.875 6.125 40.875 6 44 C4 46 4 46 0.125 46.3125 C-2.69420851 46.24073833 -3.94616885 46.02826135 -6.5 44.6875 C-8 43 -8 43 -8 40 C-8.66 40 -9.32 40 -10 40 C-10 32.74 -10 25.48 -10 18 C-10.99 18 -11.98 18 -13 18 C-13 15.69 -13 13.38 -13 11 C-12.01 11 -11.02 11 -10 11 C-10 9.02 -10 7.04 -10 5 C-9.34 5 -8.68 5 -8 5 C-8 4.34 -8 3.68 -8 3 C-2.25 0 -2.25 0 0 0 Z " fill="#E6E6E6" transform="translate(157,175)"/>
<path d="M0 0 C2.64 0 5.28 0 8 0 C8.33 7.92 8.66 15.84 9 24 C11.31 24 13.62 24 16 24 C16.33 22.68 16.66 21.36 17 20 C17.66 20 18.32 20 19 20 C19 13.4 19 6.8 19 0 C21.31 0 23.62 0 26 0 C26 9.9 26 19.8 26 30 C23.69 30 21.38 30 19 30 C19 29.01 19 28.02 19 27 C17.35 27.33 15.7 27.66 14 28 C14 28.66 14 29.32 14 30 C5.89108911 30.46782178 5.89108911 30.46782178 2.5 28.6875 C-0.29192719 25.54658191 -0.11884448 22.46160599 -0.09765625 18.45703125 C-0.09443359 17.38388672 -0.09121094 16.31074219 -0.08789062 15.20507812 C-0.07951172 14.08552734 -0.07113281 12.96597656 -0.0625 11.8125 C-0.05798828 10.68134766 -0.05347656 9.55019531 -0.04882812 8.38476562 C-0.03703498 5.58979073 -0.0205765 2.7949218 0 0 Z " fill="#100600" transform="translate(274,186)"/>
<path d="M0 0 C2.97 0 5.94 0 9 0 C9 0.99 9 1.98 9 3 C9.66 3 10.32 3 11 3 C11.33 2.01 11.66 1.02 12 0 C14.97 0 17.94 0 21 0 C20.67 2.64 20.34 5.28 20 8 C16.97265625 8.24414062 16.97265625 8.24414062 13.9453125 8.48828125 C11.60480784 8.87393036 11.60480784 8.87393036 10 12 C9.6336141 14.41713479 9.6336141 14.41713479 9.5859375 17.10546875 C9.52792969 18.57983398 9.52792969 18.57983398 9.46875 20.08398438 C9.4378125 21.10814453 9.406875 22.13230469 9.375 23.1875 C9.31699219 24.74114258 9.31699219 24.74114258 9.2578125 26.32617188 C9.16351704 28.88393622 9.07791798 31.44169287 9 34 C6.03 34 3.06 34 0 34 C0 22.78 0 11.56 0 0 Z " fill="#E7E7E7" transform="translate(207,186)"/>
<path d="M0 0 C1.18613892 0.00785522 1.18613892 0.00785522 2.39624023 0.01586914 C3.67724609 0.02070313 3.67724609 0.02070313 4.98413086 0.02563477 C5.88196289 0.03401367 6.77979492 0.04239258 7.70483398 0.05102539 C8.6065332 0.05553711 9.50823242 0.06004883 10.43725586 0.06469727 C12.67234712 0.07652315 14.90730835 0.09300319 17.14233398 0.11352539 C17.23999023 6.26586914 17.23999023 6.26586914 17.14233398 8.11352539 C16.81233398 8.44352539 16.48233398 8.77352539 16.14233398 9.11352539 C57.22733398 9.60852539 57.22733398 9.60852539 99.14233398 10.11352539 C99.14233398 10.44352539 99.14233398 10.77352539 99.14233398 11.11352539 C64.82233398 11.11352539 30.50233398 11.11352539 -4.85766602 11.11352539 C-2.6675649 0.1630198 -2.6675649 0.1630198 0 0 Z " fill="#EC5900" transform="translate(239.857666015625,221.886474609375)"/>
<path d="M0 0 C2.61593153 1.83115207 2.96989455 2.90968366 4 6 C4.51612552 10.51821361 4.5689505 13.94962984 2.375 18 C-0.4931606 20.41529314 -2.28257299 20.84181162 -6 21 C-9 20 -9 20 -10.75 17.0625 C-12.53298164 12.50599136 -12.48707561 7.64812703 -11 3 C-7.50154172 -0.37936183 -4.79262813 -0.52283216 0 0 Z " fill="#0B0B0B" transform="translate(127,193)"/>
<path d="M0 0 C2.3572062 2.24014404 2.95060742 3.64359863 3.3984375 6.875 C3.39070312 7.90625 3.38296875 8.9375 3.375 10 C3.38273438 11.03125 3.39046875 12.0625 3.3984375 13.125 C2.9486257 16.37070085 2.39887145 17.77588078 0 20 C-2.26171875 20.390625 -2.26171875 20.390625 -4.6875 20.25 C-5.49574219 20.21390625 -6.30398437 20.1778125 -7.13671875 20.140625 C-8.05904297 20.07101563 -8.05904297 20.07101563 -9 20 C-9 19.34 -9 18.68 -9 18 C-9.66 18 -10.32 18 -11 18 C-12.65272766 13.04181702 -12.58642932 8.01061481 -11.125 3 C-8.87201697 -1.00530316 -4.15144446 -0.89605435 0 0 Z " fill="#080808" transform="translate(188,193)"/>
<path d="M0 0 C0.66 0.33 1.32 0.66 2 1 C2.92350727 3.77052181 3.16329585 5.56688758 3.1875 8.4375 C3.20167969 9.19933594 3.21585937 9.96117187 3.23046875 10.74609375 C2.97612666 13.23347315 2.24017196 14.84808106 1 17 C-1.64 17 -4.28 17 -7 17 C-9.92004922 11.51030746 -10.74076947 7.09923738 -9 1 C-6.01405576 -0.49297212 -3.29146376 -0.11755228 0 0 Z " fill="#EB5A00" transform="translate(325,193)"/>
<path d="M0 0 C0.33 0 0.66 0 1 0 C1 15.18 1 30.36 1 46 C3.64 46 6.28 46 9 46 C9 34.78 9 23.56 9 12 C9.66 12.33 10.32 12.66 11 13 C12.17091038 16.51273115 12.03626985 19.1188305 11.9140625 22.8203125 C11.89282318 23.47957733 11.87158386 24.13884216 11.84970093 24.81808472 C11.80352096 26.20840454 11.75459952 27.59863566 11.703125 28.98876953 C11.62504252 31.12383729 11.55801541 33.25905436 11.4921875 35.39453125 C11.44597248 36.74481442 11.39911959 38.09507593 11.3515625 39.4453125 C11.28702881 41.29406982 11.28702881 41.29406982 11.22119141 43.18017578 C11 46 11 46 10 47 C6.7 47 3.4 47 0 47 C0 31.49 0 15.98 0 0 Z " fill="#3F3F3F" transform="translate(54,174)"/>
<path d="M0 0 C5.94 0 11.88 0 18 0 C18 2.31 18 4.62 18 7 C12.06 7 6.12 7 0 7 C0 4.69 0 2.38 0 0 Z " fill="#8D1900" transform="translate(317,222)"/>
<path d="M0 0 C2.81256281 -0.02684312 5.62487241 -0.04676188 8.4375 -0.0625 C9.23994141 -0.07087891 10.04238281 -0.07925781 10.86914062 -0.08789062 C12.91295221 -0.0965143 14.95683902 -0.0522815 17 0 C18 1 18 1 18 7 C12.06 7 6.12 7 0 7 C0 4.69 0 2.38 0 0 Z " fill="#8D1800" transform="translate(291,222)"/>
<path d="M0 0 C2.81256281 -0.02684312 5.62487241 -0.04676188 8.4375 -0.0625 C9.23994141 -0.07087891 10.04238281 -0.07925781 10.86914062 -0.08789062 C12.91295221 -0.0965143 14.95683902 -0.0522815 17 0 C18 1 18 1 18 7 C12.06 7 6.12 7 0 7 C0 4.69 0 2.38 0 0 Z " fill="#8E1900" transform="translate(265,222)"/>
<path d="M0 0 C1.58206057 0.00667536 3.16410534 0.0186375 4.74609375 0.03515625 C5.55240234 0.03966797 6.35871094 0.04417969 7.18945312 0.04882812 C9.18753131 0.06065107 11.18557158 0.07858711 13.18359375 0.09765625 C13.18359375 2.40765625 13.18359375 4.71765625 13.18359375 7.09765625 C7.24359375 7.09765625 1.30359375 7.09765625 -4.81640625 7.09765625 C-4.81640625 0.12324479 -4.81640625 0.12324479 0 0 Z " fill="#8B1700" transform="translate(243.81640625,221.90234375)"/>
<path d="M0 0 C3.3 0 6.6 0 10 0 C10 3.96 10 7.92 10 12 C10.66 12.33 11.32 12.66 12 13 C11.34 13 10.68 13 10 13 C10 13.66 10 14.32 10 15 C9.34 15 8.68 15 8 15 C8 10.38 8 5.76 8 1 C5.69 1 3.38 1 1 1 C1 13.87 1 26.74 1 40 C3.31 40 5.62 40 8 40 C8 33.73 8 27.46 8 21 C8.66 20.67 9.32 20.34 10 20 C9.67 27.26 9.34 34.52 9 42 C6.36 42 3.72 42 1 42 C0 41 0 41 -0.11352539 37.12280273 C-0.11336621 35.39305833 -0.10766849 33.66330919 -0.09765625 31.93359375 C-0.0962413 31.02497086 -0.09482635 30.11634796 -0.09336853 29.18019104 C-0.08775193 26.26592779 -0.07519665 23.35174019 -0.0625 20.4375 C-0.05748714 18.46679798 -0.05292386 16.49609476 -0.04882812 14.52539062 C-0.03777711 9.68356441 -0.02050138 4.84179505 0 0 Z " fill="#A33E00" transform="translate(239,175)"/>
<path d="M0 0 C2.31 0 4.62 0 7 0 C8 1 8 1 8.09765625 3.72265625 C8.08605469 4.82480469 8.07445312 5.92695313 8.0625 7.0625 C8.05347656 8.16722656 8.04445313 9.27195313 8.03515625 10.41015625 C8.02355469 11.26480469 8.01195312 12.11945313 8 13 C8.66 13.33 9.32 13.66 10 14 C8.68 14.33 7.36 14.66 6 15 C6 10.38 6 5.76 6 1 C4.35 1 2.7 1 1 1 C1 13.87 1 26.74 1 40 C2.65 40 4.3 40 6 40 C6 38.68 6 37.36 6 36 C6.66 36.33 7.32 36.66 8 37 C7.67 38.32 7.34 39.64 7 41 C4.69 41 2.38 41 0 41 C0 27.47 0 13.94 0 0 Z " fill="#4E1D00" transform="translate(308,175)"/>
<path d="M0 0 C0.33 0 0.66 0 1 0 C1 11.22 1 22.44 1 34 C0.67 34 0.34 34 0 34 C0 24.43 0 14.86 0 5 C-0.66 5 -1.32 5 -2 5 C-1.34 3.35 -0.68 1.7 0 0 Z " fill="#9D9D9D" transform="translate(90,185)"/>
<path d="M0 0 C0.66 0 1.32 0 2 0 C2 3.96 2 7.92 2 12 C2.66 12.33 3.32 12.66 4 13 C3.34 13 2.68 13 2 13 C2 13.66 2 14.32 2 15 C1.34 15 0.68 15 0 15 C0 10.05 0 5.1 0 0 Z " fill="#B34500" transform="translate(247,175)"/>
<path d="M0 0 C0.66 0.33 1.32 0.66 2 1 C-1.465 3.97 -1.465 3.97 -5 7 C-3.92643531 2.70574125 -3.4915227 2.25259529 0 0 Z " fill="#C4C4C4" transform="translate(174,188)"/>
</svg>
